<svg id="Layer_1" data-name="Layer 1" xmlns="http://www.w3.org/2000/svg" xmlns:xlink="http://www.w3.org/1999/xlink" viewBox="0 0 134.33 51.79"><defs><style>.cls-1{mask:url(#mask);}.cls-2{stroke:#fff;stroke-miterlimit:10;}.cls-3{fill:url(#linear-gradient);}.cls-4{fill:url(#linear-gradient-2);}.cls-5{fill:url(#linear-gradient-3);}.cls-6{fill:url(#linear-gradient-4);}.cls-7{font-size:27.84px;fill:#fff;font-family:Leelawadee-Bold, Leelawadee;font-weight:700;}</style><mask id="mask" x="0" y="-8437.4" width="134.33" height="32766" maskUnits="userSpaceOnUse"/><linearGradient id="linear-gradient" x1="263.32" y1="125.7" x2="254.65" y2="129.45" gradientUnits="userSpaceOnUse"><stop offset="0" stop-color="#590fb7"/><stop offset="0.26" stop-color="#570eb4"/><stop offset="0.48" stop-color="#520ca9"/><stop offset="0.68" stop-color="#4a0998"/><stop offset="0.88" stop-color="#3e047f"/><stop offset="1" stop-color="#34006b"/></linearGradient><linearGradient id="linear-gradient-2" x1="22.43" y1="29.18" x2="29.15" y2="24.67" gradientUnits="userSpaceOnUse"><stop offset="0" stop-color="#34006b"/><stop offset="0.12" stop-color="#3e047f"/><stop offset="0.32" stop-color="#4a0998"/><stop offset="0.52" stop-color="#520ca9"/><stop offset="0.74" stop-color="#570eb4"/><stop offset="1" stop-color="#590fb7"/></linearGradient><linearGradient id="linear-gradient-3" x1="220.32" y1="109.6" x2="238.39" y2="144.71" gradientUnits="userSpaceOnUse"><stop offset="0" stop-color="#ff0076"/><stop offset="1" stop-color="#590fb7"/></linearGradient><linearGradient id="linear-gradient-4" x1="242.32" y1="112.32" x2="257.09" y2="147.31" xlink:href="#linear-gradient-3"/></defs><title>Webrelulogo</title><g class="cls-1"><rect class="cls-2" x="0.5" y="0.5" width="133.33" height="50.79"/></g><g id="Logo"><path class="cls-3" d="M270.55,113.26l-11.06,26a3.43,3.43,0,0,1-1.1,1.41l-4.5-14.46,3.77-8.85a6.66,6.66,0,0,1,6.1-4.09Z" transform="translate(-212.84 -101.4)"/><polygon class="cls-4" points="31.65 29.25 28.36 39.94 22.14 25.31 22.14 25.31 26.28 11.86 31.65 29.25"/><path class="cls-5" d="M241.2,141.34H230.06l-11.95-28.08h5.27a8.89,8.89,0,0,1,6.55,2.91,9.2,9.2,0,0,1,1.68,2.61Z" transform="translate(-212.84 -101.4)"/><path class="cls-6" d="M258.39,140.66l-.15.11a3.32,3.32,0,0,1-1.87.57h-8.58l-8.67-28.08h7.11a5,5,0,0,1,4.74,3.55l2.92,9.39Z" transform="translate(-212.84 -101.4)"/></g><text id="Title" class="cls-7" transform="translate(57.71 34.8) scale(0.65 1)">webrelu</text></svg>